<svg width="32" height="32" viewBox="0 0 32 32" fill="none" xmlns="http://www.w3.org/2000/svg">
<path d="M30.8541 16.548C30.6971 16.9754 30.4123 17.3441 30.0383 17.6039C29.6643 17.8637 29.2194 18.002 28.7641 18H28.0001V29C28.0001 29.2652 27.8947 29.5196 27.7072 29.7071C27.5197 29.8946 27.2653 30 27.0001 30H21.0001V23C21.0001 20.243 18.7571 18 16.0001 18C13.2431 18 11.0001 20.243 11.0001 23V30H5.00009C4.73487 30 4.48052 29.8946 4.29298 29.7071C4.10544 29.5196 4.00009 29.2652 4.00009 29V18H3.23509C2.77983 18.0022 2.33494 17.8641 1.96097 17.6045C1.587 17.3449 1.30211 16.9763 1.14509 16.549C0.982209 16.1235 0.954342 15.6581 1.06527 15.2161C1.1762 14.7742 1.42055 14.3772 1.76509 14.079L13.4441 3.019C14.1346 2.36534 15.0493 2.00107 16.0001 2.00107C16.9509 2.00107 17.8656 2.36534 18.5561 3.019L30.2631 14.105C30.9411 14.696 31.1851 15.666 30.8541 16.548Z" fill="#FF8000"/>
</svg>
