<svg width="24" height="24" viewBox="0 0 24 24" fill="none" xmlns="http://www.w3.org/2000/svg">
<g clip-path="url(#clip0_2395_15155)">
<path d="M22.1998 14.4L20.9998 13.7C19.6998 12.9 19.6998 11 20.9998 10.2L22.1998 9.5C23.1998 8.9 23.4998 7.7 22.8998 6.8L21.8998 5.1C21.2998 4.1 20.0998 3.8 19.1998 4.4L17.9998 5.1C16.6998 5.9 14.9998 4.9 14.9998 3.4V2C14.9998 0.9 14.0998 0 12.9998 0H10.9998C9.89984 0 8.99984 0.9 8.99984 2V3.3C8.99984 4.8 7.29984 5.8 5.99984 5L4.79984 4.4C3.79984 3.8 2.59984 4.2 2.09984 5.1L1.09984 6.8C0.599845 7.8 0.899845 9 1.79984 9.6L2.99984 10.3C4.29984 11 4.29984 13 2.99984 13.7L1.79984 14.4C0.799845 15 0.499845 16.2 1.09984 17.1L2.09984 18.8C2.69984 19.8 3.89984 20.1 4.79984 19.5L5.99984 18.9C7.29984 18.1 8.99984 19.1 8.99984 20.6V22C8.99984 23.1 9.89984 24 10.9998 24H12.9998C14.0998 24 14.9998 23.1 14.9998 22V20.7C14.9998 19.2 16.6998 18.2 17.9998 19L19.1998 19.7C20.1998 20.3 21.3998 19.9 21.8998 19L22.8998 17.3C23.3998 16.2 23.0998 15 22.1998 14.4ZM11.9998 16C9.79984 16 7.99984 14.2 7.99984 12C7.99984 9.8 9.79984 8 11.9998 8C14.1998 8 15.9998 9.8 15.9998 12C15.9998 14.2 14.1998 16 11.9998 16Z" fill="#9A9A9A"/>
</g>
<defs>
<clipPath id="clip0_2395_15155">
<rect width="24" height="24" fill="white"/>
</clipPath>
</defs>
</svg>
